<?xml version="1.0" encoding="UTF-8" standalone="no"?>
<svg
   xmlns:dc="http://purl.org/dc/elements/1.1/"
   xmlns:cc="http://creativecommons.org/ns#"
   xmlns:rdf="http://www.w3.org/1999/02/22-rdf-syntax-ns#"
   xmlns:svg="http://www.w3.org/2000/svg"
   xmlns="http://www.w3.org/2000/svg"
   xml:space="preserve"
   viewBox="26.117 12.201 301.27 136.742"
   height="136.742px"
   width="301.27px"
   y="0px"
   x="0px"
   id="Layer_1"
   version="1.1"><metadata
     id="metadata37"><rdf:RDF><cc:Work
         rdf:about=""><dc:format>image/svg+xml</dc:format><dc:type
           rdf:resource="http://purl.org/dc/dcmitype/StillImage" /><dc:title></dc:title></cc:Work></rdf:RDF></metadata><defs
     id="defs35" /><g
     style="fill:#ffffff;fill-opacity:1"
     id="g3"><path
       style="fill:#ffffff;fill-opacity:1"
       id="path5"
       d="M305.279,66.358c-8.07,0-14.816,1.473-20.953,3.907v40.649h13.644V78.274c1.959-0.874,4.429-1.36,6.978-1.36 c7.383,0,8.793,4.49,8.793,12.807l0.005,21.193h13.643v-23.21C327.387,74.712,323.055,66.358,305.279,66.358z" /><rect
       style="fill:#ffffff;fill-opacity:1"
       id="rect7"
       height="59.7"
       width="13.601"
       y="51.217"
       x="174.356" /><polygon
       style="fill:#ffffff;fill-opacity:1"
       id="polygon9"
       points="203.59,110.917 219.714,110.917 202.816,86.938 218.318,67.934 202.827,67.934 187.987,87.424 " /><path
       style="fill:#ffffff;fill-opacity:1"
       id="path11"
       d="M248.7,76.766c5.954,0,9.896,3.708,9.896,12.274c0,8.298-3.113,12.826-10.456,12.826c-2.109,0-4.767-0.429-6.124-0.954 v-22.85C243.941,77.176,246.281,76.766,248.7,76.766z M228.408,70.266v57.365h13.607v-16.382c2.907,0.531,5.183,0.657,7.738,0.657 c14.999,0,22.881-8.59,22.881-22.967c0-14.489-7.753-22.581-23.833-22.581C241.605,66.358,234.077,67.934,228.408,70.266z" /></g><g
     style="fill:#ffffff;fill-opacity:1"
     id="g13"><path
       style="fill:#ffffff;fill-opacity:1"
       id="path15"
       d="M87.939,71.603v-6.724c-1.612-0.459-3.536-0.689-5.47-0.689c-7.847,0-11.71,5.303-11.71,10.666 c0,5.104,1.88,9.964,8.958,20.931c2.871-0.379,5.735-0.621,8.544-0.697c-6.168-11.44-7.67-15.455-7.67-18.386 c0-3.406,1.962-5.141,5.951-5.141C87.08,71.562,87.514,71.572,87.939,71.603z" /><path
       style="fill:#ffffff;fill-opacity:1"
       id="path17"
       d="M66.55,81.523c-0.576-1.533-1.002-4.001-1.166-5.793c-6.248-0.207-10.949,3.354-10.949,8.414 c0,4.062,2.072,7.669,10.693,14.977c2.147-0.714,5.114-1.557,7.611-2.1c-8.436-7.859-9.741-9.952-9.741-12.303 C63.001,82.993,64.199,81.866,66.55,81.523z" /><path
       style="fill:#ffffff;fill-opacity:1"
       id="path19"
       d="M93.71,71.603v-6.724c1.613-0.459,3.537-0.689,5.47-0.689c7.847,0,11.71,5.303,11.71,10.666 c0,5.104-1.88,9.964-8.959,20.931c-2.871-0.379-5.735-0.621-8.542-0.697c6.167-11.44,7.671-15.455,7.671-18.386 c0-3.406-1.961-5.141-5.954-5.141C94.568,71.562,94.135,71.572,93.71,71.603z" /><path
       style="fill:#ffffff;fill-opacity:1"
       id="path21"
       d="M115.099,81.523c0.575-1.533,1.002-4.001,1.165-5.793c6.25-0.207,10.95,3.354,10.95,8.414 c0,4.062-2.073,7.669-10.695,14.977c-2.146-0.714-5.115-1.557-7.612-2.1c8.438-7.859,9.743-9.952,9.743-12.303 C118.651,82.993,117.448,81.866,115.099,81.523z" /><path
       style="fill:#ffffff;fill-opacity:1"
       id="path23"
       d="M90.824,109.397c6.318,0,12.757,0.825,19.46,2.82l2.289-7.519c-7.521-2.244-14.848-3.16-21.746-3.16 c-6.901,0-14.225,0.916-21.749,3.16l2.289,7.519C78.068,110.223,84.505,109.397,90.824,109.397z" /><rect
       style="fill:#ffffff;fill-opacity:1"
       id="rect25"
       height="9.848"
       width="9.849"
       transform="matrix(-0.707 -0.7073 0.7073 -0.707 117.1735 155.6171)"
       y="48.61"
       x="85.901" /></g><path
     style="fill:#ffffff;fill-opacity:1"
     id="path27"
     d="M47.439,24.056c3.417-5.808,9.139-10.59,15.972-11.53c5.466-0.683,11.189-0.341,16.483,1.538 c16.058,5.295,30.32,16.569,38.349,31.601c0.769,1.366,1.366,2.904,1.793,4.526c-2.049,0.171-4.099,0.513-6.148,0.427 c-1.025-0.341-1.196-1.537-1.794-2.306c-6.577-12.384-18.107-21.779-31.088-26.989c-6.748-2.477-14.861-4.441-21.609-0.598 c-7.088,4.356-9.736,12.982-11.017,20.754c-1.452,7.943-0.769,16.228,1.452,24c0.768,2.562,1.964,5.039,2.477,7.772 c-1.11,1.879-3.844,1.964-5.808,2.562c-3.161-8.455-5.808-17.337-5.381-26.477C41.375,40.625,42.998,31.657,47.439,24.056z" /><path
     style="fill:#ffffff;fill-opacity:1"
     id="path29"
     d="M116.278,57.792c6.406-0.427,12.982-0.683,19.131,1.452c6.833,2.306,12.982,7.174,16.058,13.75 c2.135,4.441,2.647,9.48,1.708,14.263c-1.965,9.225-6.748,17.423-9.31,26.477c-2.135,7.089-3.417,14.604-6.833,21.267 c-2.818,6.064-7.602,11.53-14.263,13.409c0,0-1.393,0.533-3.155,0.533c-1.947,0-3.762-0.533-3.762-0.533 c-5.467-2.392-11.359-4.868-15.033-9.822c2.05-0.769,4.015-1.793,6.064-2.22c4.015,1.793,7.345,5.294,11.958,5.465 c4.441,0.514,8.114-2.647,10.334-6.149c5.125-8.027,6.234-17.679,9.31-26.477c2.22-6.746,5.381-13.067,7.516-19.813 c1.537-5.04,1.537-10.847-1.452-15.374c-4.526-7.516-13.921-10.505-22.292-9.993c-1.623-0.171-3.416,0.512-4.868-0.427 C116.876,61.721,116.619,59.756,116.278,57.792z" /><path
     style="fill:#ffffff;fill-opacity:1"
     id="path31"
     d="M28.564,104.596c-5.636-10.676-1.11-24.939,9.224-30.833c1.11,1.879,1.794,3.929,2.391,6.064 c-6.491,4.526-9.48,13.58-6.148,20.924c3.501,7.943,10.59,13.666,17.85,18.192c12.555,7.26,27.929,11.273,42.277,7.345 c3.161-1.195,5.381,2.392,6.748,4.697c-14.434,5.723-31.003,3.587-44.925-2.562C44.877,123.3,34.286,115.613,28.564,104.596z" /></svg>